<svg viewBox="0 0 512 512" xmlns="http://www.w3.org/2000/svg"><path d="M0 0h512v512H0Z"/><path fill="#FFF" d="M94.37 87.72l-14.68 26.54 -40.93-24.88 -18.7 30.76 42.19 25.64 -14.58 26.357 15.75 8.71 46.68-84.426ZM111.99 128c-12.41 17.74-28.85 57.06-31.65 80.46 -1.51 12.63.15 22.75 2.86 26.73 1.35 1.98 2.47 2.81 4.9 3.31 2.42.5 6.51.34 12.47-1.74l12.3-4.31 -.35 13.03c-.31 11.49 4.75 25.29 12.76 38.89 2.02-17.08 8.01-34.15 14.38-51.23 -3.64 27.49-2.43 52.21 2.58 74.76 5.33 6.22 11.05 12.02 16.863 17.1 12.2 10.66 24.81 18.15 32.76 20.35 3.97 1.1 6.375.72 6.9.48 .53-.24.76.11 1.23-2.81 1.54-9.42.8-30.27 1.86-55.39 1-23.77 5.3-54.73 14.31-83.53 -19.012-23.024-56.09-68.02-104.25-76.17Zm118.8 88.178c-5.79 19.74-8.61 39.33-10.01 57.35l9.66 17.95 -10.81 4.71c-.19 7.11-.24 13.58-.29 19.76l19.65-8.58 .09.17 33.059-14.55 -.05-.08 93.62-40.87 -7.21-16.5 -94.99 41.45Zm178.99 48.68c-44.48 57.95-86.37 118.26-184.195 170.9 1.36 1.08 2.7 2.15 4.01 3.19 10.03 8 18.49 14.03 26.39 14.03 7.9 0 16.35-6.04 26.39-14.04 10.03-8 21.66-17.97 37.61-17.97s27.57 9.96 37.61 17.96c10.03 8 18.49 14.03 26.39 14.03 1.08 0 2.17-.13 3.28-.34l-.001-.001c1.73-7.34 3.36-14.71 4.87-22.09l-18.887-31.65 18.26-13.35 -16.86-15.46 29.488-17.7c3.11-29.2 4.82-58.33 5.62-87.577Zm17.69 9.9c-1.88 54.85-7.07 109.73-19.03 165.71 .64-.51 1.27-1 1.92-1.52 8.53-6.8 18.21-15.02 30.72-17.33l7.09-4.46c.06-4.4.1-8.79.11-13.17l-13.95-2.99s6.64-16.46 13.21-32.11c-1.7-33.03-6.79-64.84-20.1-94.17ZM280.71 308.9l-33.06 14.54 30.9 57.39h-.001c9.76-7.41 19.18-15.25 28.23-23.5Zm-141.4 22.33l-15.19 6.62 7.2 16.49 22.9-10v-.001c-2.37-1.88-4.68-3.81-6.95-5.79v0c-2.72-2.39-5.38-4.84-7.97-7.35ZM94.67 381.15c-2.59 0-5.19.17-7.83.54 -3.32.67-6.78 1.25-9.55 3.2 1.69 2.91 4.87 5.5 7.14 7.08 6.59 4.53 17.22 9.18 29.512 12.04 12.29 2.86 23.87 3.39 31.79 2.23 3.31-.68 6.77-1.26 9.53-3.2 -1.7-2.92-4.87-5.5-7.15-7.09 -6.59-4.54-17.22-9.18-29.51-12.04 -8.52-1.39-16.21-2.8-23.98-2.79Zm60.625 21.9c.13.3.06.28.12.03 .05-.26.12-.25-.13-.03Zm-86.46-.46c-2.92 6.02-5.2 12.19-6.95 18.43v0c.69-.04 1.38-.06 2.07-.06 15.95 0 27.57 9.96 37.61 17.96 10.03 8 18.49 14.03 26.39 14.03 6.13 0 12.607-3.66 19.887-9.03 1.97-6.92 3.63-13.81 4.75-20.66v0c-1.41.3-2.82.56-4.24.77 -11 1.61-24.34.78-38.488-2.51 -14.16-3.3-26.49-8.45-35.64-14.75v0c-1.89-1.29-3.7-2.7-5.41-4.21Zm-4.88 36.38c-13.42 0-26.98 6.37-39 13.35v21.06c.91-.59 1.81-1.16 2.76-1.75 12.49-7.68 28.33-14.67 36.232-14.67 7.9 0 16.35 6.03 26.39 14.03 10.03 8 21.66 17.96 37.61 17.96s27.57-9.97 37.61-17.97c10.03-8 18.49-14.04 26.39-14.04 7.9 0 16.35 6.03 26.39 14.03 10.03 8 21.66 17.96 37.61 17.96s27.57-9.97 37.61-17.97c10.03-8 18.49-14.04 26.39-14.04 7.9 0 16.35 6.03 26.39 14.03 10.03 8 21.66 17.96 37.61 17.96s27.57-9.97 37.61-17.97c10.03-8 18.49-14.04 26.39-14.04 7.9 0 23.73 6.98 36.23 14.66 .95.58 1.85 1.16 2.76 1.74v-21.07c-12.03-6.98-25.59-13.35-39-13.35 -15.95 0-27.58 9.96-37.61 17.96 -10.04 8-18.49 14.03-26.39 14.03 -7.9 0-16.36-6.04-26.39-14.04 -10.04-8-21.66-17.97-37.61-17.97s-27.58 9.96-37.61 17.96c-10.04 8-18.49 14.03-26.39 14.03 -7.9 0-16.36-6.04-26.39-14.04 -10.04-8-21.66-17.97-37.61-17.97s-27.58 9.96-37.61 17.96c-10.04 8-18.49 14.03-26.39 14.03 -7.9 0-16.36-6.04-26.39-14.04 -10.04-8-21.66-17.97-37.61-17.97Z"/></svg>