<?xml version="1.0" encoding="UTF-8" standalone="no"?>
<!DOCTYPE svg PUBLIC "-//W3C//DTD SVG 1.1//EN" "http://www.w3.org/Graphics/SVG/1.1/DTD/svg11.dtd">
<svg width="100%" height="100%" viewBox="0 0 100 100" version="1.1" xmlns="http://www.w3.org/2000/svg" xmlns:xlink="http://www.w3.org/1999/xlink" xml:space="preserve" xmlns:serif="http://www.serif.com/" style="fill-rule:evenodd;clip-rule:evenodd;stroke-linejoin:round;stroke-miterlimit:2;">
    <g transform="matrix(1,0,0,1,-116.022,-34.022)">
        <g>
            <g transform="matrix(1.27186,0,0,7.38178,9.60333,-811.076)">
                <rect x="83.672" y="114.484" width="78.625" height="13.547" style="fill:rgb(235,235,235);fill-opacity:0;"/>
            </g>
            <g transform="matrix(0.964902,0,0,1.17565,94.865,-2.00931)">
                <path d="M119.323,44.566C119.323,39.691 114.501,35.733 108.561,35.733L36.812,35.733C30.872,35.733 26.049,39.691 26.049,44.566C26.049,49.441 30.872,53.399 36.812,53.399L108.561,53.399C114.501,53.399 119.323,49.441 119.323,44.566Z" style="fill:rgb(207,207,207);"/>
            </g>
            <g transform="matrix(0.964902,0,0,1.17565,94.865,32.6061)">
                <path d="M119.323,44.566C119.323,39.691 114.501,35.733 108.561,35.733L36.812,35.733C30.872,35.733 26.049,39.691 26.049,44.566C26.049,49.441 30.872,53.399 36.812,53.399L108.561,53.399C114.501,53.399 119.323,49.441 119.323,44.566Z" style="fill:rgb(207,207,207);"/>
            </g>
            <g transform="matrix(0.964902,0,0,1.17565,94.865,67.2215)">
                <path d="M119.323,44.566C119.323,39.691 114.501,35.733 108.561,35.733L36.812,35.733C30.872,35.733 26.049,39.691 26.049,44.566C26.049,49.441 30.872,53.399 36.812,53.399L108.561,53.399C114.501,53.399 119.323,49.441 119.323,44.566Z" style="fill:rgb(207,207,207);"/>
            </g>
        </g>
    </g>
</svg>
